<svg width="787" height="176" viewBox="0 0 787 176" fill="none" xmlns="http://www.w3.org/2000/svg">
<path d="M325.6 134H300.7L293.8 121.3H251.9L245 134H220.1L260.2 60H285.5L325.6 134ZM272.9 82.6L260.9 104.6H284.8L272.9 82.6ZM338.667 134L379.167 60L338.667 134ZM351.467 110.6L379.167 60H404.167L365.167 134H337.167L298.467 60H325.267L351.467 110.6ZM433.027 134H408.327V60H433.027V134ZM540.737 134H515.837L508.937 121.3H467.037L460.137 134H435.237L475.337 60H500.637L540.737 134ZM488.037 82.6L476.037 104.6H499.937L488.037 82.6ZM618.797 60V71.5H557.797V88.6H610.397V99.6H557.797V134H544.797V60H618.797ZM640.27 60H627.77V70.6H640.27V60ZM640.27 134H627.77V73.5H640.27V134ZM686.354 77.7C693.687 77.7 699.421 80.2667 703.554 85.4C707.754 90.5333 709.854 99.2333 709.854 111.5V134H697.354V111.8C697.354 104.933 696.221 99.2 693.954 94.6C691.687 89.9333 686.987 87.6 679.854 87.6C672.521 87.6 667.654 89.9667 665.254 94.7C662.921 99.3667 661.754 105.3 661.754 112.5V134H649.254V79.5H661.754V87C667.221 80.8 675.421 77.7 686.354 77.7ZM769.795 60.2H782.295V133.7H771.895L770.595 127.4C764.928 132.4 755.861 134.9 743.395 134.9C738.261 134.9 733.661 133.633 729.595 131.1C725.595 128.5 722.461 124.967 720.195 120.5C717.995 116.033 716.895 111.033 716.895 105.5V105.4V105.2C716.961 100.4 718.028 95.8667 720.095 91.6C722.228 87.3333 725.295 83.9 729.295 81.3C733.295 78.7 737.995 77.4 743.395 77.4C754.928 77.4 763.728 80.2667 769.795 86V60.2ZM750.395 126.2C754.195 126.2 757.561 125.267 760.495 123.4C763.428 121.467 765.695 119 767.295 116C768.961 112.933 769.795 109.733 769.795 106.4C769.795 102.733 768.995 99.3667 767.395 96.3C765.795 93.2333 763.495 90.8 760.495 89C757.561 87.1333 754.195 86.2 750.395 86.2C746.061 86.2 742.361 87.2 739.295 89.2C736.228 91.2 733.928 93.7 732.395 96.7C730.861 99.6333 730.061 102.533 729.995 105.4C730.061 108.733 730.861 112 732.395 115.2C733.928 118.333 736.195 120.967 739.195 123.1C742.261 125.167 745.995 126.2 750.395 126.2Z" fill="#F2F2F7"/>
<path d="M121.757 98.5118C118.198 94.0914 114.926 90.0155 111.654 85.8821C108.726 82.1506 105.798 78.3617 102.928 74.5728C101.894 73.1376 100.861 71.645 101.148 69.7505C101.205 69.2912 101.55 68.6024 101.952 68.4301C105.741 67.0523 109.53 65.6745 113.376 64.5264C116.131 63.6653 118.944 62.919 121.815 62.4023C124.743 61.8856 127.67 61.5986 130.656 61.4264C136.109 61.1393 141.563 61.1393 146.902 62.2875C150.346 63.0912 153.791 64.2394 157.063 65.5597C161.885 67.4542 166.076 70.4968 169.636 74.2857C172.563 77.3857 174.86 80.8876 175.778 85.0784C176.237 87.2025 176.697 89.4414 176.467 91.5655C175.893 96.6174 173.654 100.866 169.75 104.253C165.847 107.582 161.369 109.764 156.489 111.256C148.395 113.667 140.07 114.184 131.746 114.471C120.265 114.816 108.783 114.988 97.3591 114.988C93.3979 114.988 89.4942 114.242 85.5331 113.782C84.8442 113.725 84.2127 113.725 83.5238 113.61C80.2515 113.151 76.9793 112.806 73.7645 112.29C70.32 111.716 66.9329 111.142 63.5459 110.453C61.3644 109.993 59.1829 109.362 57.0588 108.73C54.1884 107.869 51.3754 106.836 48.5624 105.975C42.879 104.195 37.4827 101.612 32.2586 98.7415C25.6567 95.1248 19.6863 90.6469 14.4622 85.1932C9.98437 80.4858 6.36767 75.2042 3.78432 69.1764C0.569484 61.7134 -0.521263 53.9634 0.225039 45.9837C0.569486 42.5392 1.54542 39.1521 2.57876 35.8799C4.01396 31.2873 6.36768 27.0391 9.18066 23.1353C13.1418 17.6816 18.0215 13.3186 23.5326 9.58711C28.6419 6.14264 34.2679 4.07595 40.0087 2.18149C41.7883 1.60741 43.7402 1.37779 45.6346 1.14816C49.481 0.688894 53.3847 0 57.2884 0C61.4218 0 65.5551 0.631483 69.6311 1.09075C71.2385 1.26297 72.7885 1.66482 74.3959 1.95186C78.5867 2.58335 82.433 4.24819 86.1645 6.14264C91.1016 8.66859 95.7517 11.5964 100.057 15.0982C100.689 15.6149 100.976 16.0168 100.574 16.7631C98.335 20.552 96.0387 24.3409 93.9146 28.1872C89.609 35.9373 85.3608 43.6874 81.0553 51.4374C79.5626 54.0782 78.2997 56.8911 76.6348 59.4171C76.0608 60.3356 74.7404 60.9097 73.6496 61.369C69.9181 62.919 66.1292 64.2394 62.3403 65.732C59.1255 66.9949 55.8532 68.1431 52.6958 69.5783C50.6291 70.4968 48.9069 71.932 47.9883 74.1135C47.4717 75.3765 47.7587 76.9265 48.9643 77.558C49.8828 78.0172 50.9161 78.3617 51.8921 78.5339C54.9347 78.9932 57.8625 78.1894 60.7903 77.4431C64.3496 76.5246 67.9663 75.5487 71.5255 74.6302C73.0182 74.2283 74.5682 73.8839 76.0608 73.4246C76.9793 73.1376 77.7256 73.195 78.5867 73.8265C83.0071 77.3857 87.5423 80.7728 92.0201 84.3321C96.498 87.8914 100.918 91.5081 105.339 95.1248C107.004 96.5026 108.668 97.8229 110.276 99.2007C112.343 101.038 114.524 101.497 117.107 100.291C118.485 99.4878 119.978 99.0859 121.757 98.5118Z" fill="#F2F2F7"/>
<path d="M199.66 94.7229C199.315 93.2877 198.971 91.7951 198.684 90.3599C197.765 85.7673 196.33 81.4043 194.263 77.2135C191.623 71.8746 187.891 67.4542 183.356 63.7227C179.739 60.7375 175.663 58.3264 171.358 56.3171C166.708 54.193 161.885 52.7578 156.891 51.4374C142.424 47.7059 127.728 48.1078 113.031 48.6818C109.013 48.8541 104.994 49.6004 100.918 50.0022C98.9665 50.1745 98.2202 49.4282 98.5647 47.4189C99.1387 44.4337 99.7702 41.4485 100.574 38.5207C101.378 35.5929 102.468 32.7799 103.444 29.8521C105.109 24.7428 106.659 19.6335 108.381 14.5816C108.726 13.5483 109.472 12.5723 110.333 11.8834C115.443 7.86489 121.241 5.16672 127.383 3.15745C130.828 2.0667 134.387 1.55002 137.946 0.803722C143.171 -0.229619 148.452 0.114839 153.619 0.401878C156.834 0.631509 160.048 1.66484 163.263 2.29633C168.487 3.32967 173.195 5.62598 177.845 8.03711C181.289 9.81675 184.504 12.1705 187.432 14.7538C190.934 17.8539 194.263 21.2983 197.249 24.915C200.521 28.991 203.219 33.5262 204.999 38.5207C206.434 42.654 207.812 46.7874 208.845 51.0356C209.993 55.9152 210.108 60.9671 209.936 65.9616C209.649 73.3672 207.64 80.3136 204.539 86.9729C203.506 89.2118 202.301 91.3359 201.152 93.5748C200.923 94.034 200.693 94.4933 200.406 94.9525C200.119 95.01 199.889 94.8951 199.66 94.7229Z" fill="#F2F2F7"/>
<path d="M38.7457 118.49C42.3624 119.179 45.9217 119.81 49.5384 120.556C52.3514 121.131 55.107 121.819 57.8625 122.508C60.044 123.082 62.2829 123.714 64.4644 124.345C67.7941 125.264 71.1811 126.24 74.5108 127.158C77.6108 128.019 80.7108 128.938 83.8109 129.799C88.2313 131.005 92.5943 132.21 97.0147 133.416C100.287 134.334 103.502 135.253 106.774 136.114C109.243 136.745 111.768 137.262 114.294 137.836C117.28 138.525 120.265 139.271 123.307 139.96C124.857 140.305 126.35 140.649 127.9 140.879C131.976 141.51 136.109 142.084 140.185 142.658C141.735 142.888 143.285 143.06 144.835 143.347C145.18 143.405 145.582 143.692 145.639 143.979C145.696 144.266 145.467 144.725 145.237 144.955C138.922 150.121 132.665 155.346 126.293 160.455C121.413 164.359 116.361 168.205 111.367 171.994C108.267 174.405 104.88 175.898 100.861 174.577C99.2536 174.003 97.7036 173.085 96.2684 172.109C88.5183 166.712 80.7683 161.316 73.133 155.862C67.2774 151.671 61.4218 147.481 55.7958 143.003C49.8254 138.238 44.0846 133.244 38.4013 128.192C36.9661 126.929 35.7605 125.321 34.7272 123.656C32.7753 120.614 34.4401 119.351 37.1383 118.834C37.655 118.719 38.1716 118.834 38.6883 118.834C38.7457 118.662 38.7457 118.547 38.7457 118.49Z" fill="#F2F2F7"/>
</svg>
